<svg width="48" height="48" viewBox="0 0 48 48" fill="none" xmlns="http://www.w3.org/2000/svg">
<path d="M0 16C0 7.16344 7.16344 0 16 0H32C40.8366 0 48 7.16344 48 16V32C48 40.8366 40.8366 48 32 48H16C7.16344 48 0 40.8366 0 32V16Z" fill="url(#paint0_linear_1_1408)"/>
<path d="M24 16C25.4933 16 26.92 16.16 28.28 16.48C29.6 16.7733 30.7667 17.1967 31.78 17.75C32.7933 18.3033 33.58 18.94 34.14 19.66C34.7133 20.4067 35 21.1867 35 22V26C35 26.8133 34.7133 27.5933 34.14 28.34C33.58 29.06 32.7933 29.6967 31.78 30.25C30.7667 30.8033 29.6 31.2267 28.28 31.52C26.92 31.84 25.4933 32 24 32C22.04 32 20.22 31.7333 18.54 31.2C16.9 30.6933 15.5867 30 14.6 29.12C13.5867 28.2133 13.0533 27.2333 13 26.18V22C13 21.1867 13.2867 20.4067 13.86 19.66C14.42 18.94 15.2067 18.3033 16.22 17.75C17.2333 17.1967 18.4 16.7733 19.72 16.48C21.08 16.16 22.5067 16 24 16ZM24 28C22.1733 28 20.46 27.7667 18.86 27.3C17.3 26.8467 16.0133 26.2333 15 25.46V26C15 26.4667 15.2267 26.9367 15.68 27.41C16.1333 27.8833 16.7667 28.3133 17.58 28.7C18.42 29.1 19.3733 29.4133 20.44 29.64C21.5733 29.88 22.76 30 24 30C25.6 30 27.1067 29.8 28.52 29.4C29.8267 29.04 30.8867 28.56 31.7 27.96C32.5133 27.36 32.9467 26.7467 33 26.12V25.44C31.9867 26.2267 30.7 26.8467 29.14 27.3C27.54 27.7667 25.8267 28 24 28ZM24 18C22.76 18 21.5733 18.12 20.44 18.36C19.3733 18.5867 18.42 18.9 17.58 19.3C16.7667 19.6867 16.1333 20.1167 15.68 20.59C15.2267 21.0633 15 21.5333 15 22C15 22.4667 15.2267 22.9367 15.68 23.41C16.1333 23.8833 16.7667 24.3133 17.58 24.7C18.42 25.1 19.3733 25.4133 20.44 25.64C21.5733 25.88 22.76 26 24 26C25.24 26 26.4267 25.88 27.56 25.64C28.6267 25.4133 29.58 25.1 30.42 24.7C31.2333 24.3133 31.8667 23.8833 32.32 23.41C32.7733 22.9367 33 22.4667 33 22C33 21.5333 32.7733 21.0633 32.32 20.59C31.8667 20.1167 31.2333 19.6867 30.42 19.3C29.58 18.9 28.6267 18.5867 27.56 18.36C26.4267 18.12 25.24 18 24 18Z" fill="white"/>
<defs>
<linearGradient id="paint0_linear_1_1408" x1="0" y1="0" x2="48" y2="48" gradientUnits="userSpaceOnUse">
<stop stop-color="#A855F7"/>
<stop offset="1" stop-color="#EC4899"/>
</linearGradient>
</defs>
</svg>
