<svg width="384" height="40" viewBox="0 0 384 40" fill="none" xmlns="http://www.w3.org/2000/svg">
<path d="M0 20C0 8.95431 8.95431 0 20 0C31.0457 0 40 8.95431 40 20C40 31.0457 31.0457 40 20 40C8.95431 40 0 31.0457 0 20Z" fill="white" fill-opacity="0.1"/>
<path d="M21.4585 21.2497H23.5413L24.3744 17.9163H21.4585V16.2497C21.4585 15.8719 21.4751 15.5997 21.5084 15.433C21.5751 15.1663 21.7195 14.9608 21.9417 14.8163C22.2083 14.6608 22.6026 14.583 23.1247 14.583H24.3744V11.783C24.1856 11.7608 23.8856 11.7386 23.4746 11.7163C22.9636 11.683 22.4693 11.6663 21.9917 11.6663C21.2252 11.6663 20.5504 11.8191 19.9672 12.1247C19.384 12.4302 18.9369 12.8663 18.6258 13.433C18.2926 14.0441 18.126 14.7608 18.126 15.583V17.9163H15.6266V21.2497H18.126V28.333H21.4585V21.2497Z" fill="white"/>
<path d="M56 20C56 8.95431 64.9543 0 76 0C87.0457 0 96 8.95431 96 20C96 31.0457 87.0457 40 76 40C64.9543 40 56 31.0457 56 20Z" fill="white" fill-opacity="0.1"/>
<path d="M80.7243 12.5502L76.5587 17.3169L72.9596 12.5502H67.7609L73.976 20.7002L68.0775 27.4502H70.6102L75.159 22.2335L79.1414 27.4502H84.2234L77.7417 18.8669L83.257 12.5502H80.7243ZM79.8412 25.9335L70.7101 13.9835H72.2098L81.2408 25.9335H79.8412Z" fill="white"/>
<path d="M112 20C112 8.95431 120.954 0 132 0C143.046 0 152 8.95431 152 20C152 31.0457 143.046 40 132 40C120.954 40 112 31.0457 112 20Z" fill="white" fill-opacity="0.1"/>
<path d="M132.842 11.6663C133.686 11.6663 134.297 11.6719 134.675 11.683L135.425 11.7163C136.202 11.7497 136.874 11.8775 137.441 12.0997C138.007 12.3219 138.502 12.6441 138.924 13.0663C139.346 13.4886 139.668 13.983 139.89 14.5497C140.112 15.1163 140.24 15.7886 140.273 16.5663L140.307 17.3163C140.318 17.7052 140.323 18.3163 140.323 19.1497V20.8497C140.323 21.6941 140.318 22.3052 140.307 22.683L140.273 23.433C140.24 24.2108 140.112 24.883 139.89 25.4497C139.668 26.0163 139.346 26.5108 138.924 26.933C138.502 27.3552 138.007 27.6775 137.441 27.8997C136.874 28.1219 136.202 28.2497 135.425 28.283L134.675 28.3163C134.286 28.3275 133.675 28.333 132.842 28.333H131.142C130.298 28.333 129.687 28.3275 129.309 28.3163L128.56 28.283C127.782 28.2497 127.11 28.1219 126.544 27.8997C125.977 27.6775 125.483 27.3552 125.061 26.933C124.638 26.5108 124.316 26.0163 124.094 25.4497C123.872 24.883 123.744 24.2108 123.711 23.433L123.678 22.683C123.666 22.2941 123.661 21.683 123.661 20.8497V19.1497C123.661 18.3052 123.666 17.6941 123.678 17.3163L123.711 16.5663C123.744 15.7886 123.872 15.1163 124.094 14.5497C124.316 13.983 124.638 13.4886 125.061 13.0663C125.483 12.6441 125.977 12.3219 126.544 12.0997C127.11 11.8775 127.782 11.7497 128.56 11.7163L129.309 11.683C129.698 11.6719 130.309 11.6663 131.142 11.6663H132.842ZM131.992 15.833C131.237 15.833 130.54 16.0191 129.901 16.3913C129.262 16.7636 128.757 17.2691 128.385 17.908C128.013 18.5469 127.827 19.2441 127.827 19.9997C127.827 20.7552 128.013 21.4525 128.385 22.0913C128.757 22.7302 129.262 23.2358 129.901 23.608C130.54 23.9802 131.237 24.1663 131.992 24.1663C132.748 24.1663 133.445 23.9802 134.083 23.608C134.722 23.2358 135.227 22.7302 135.6 22.0913C135.972 21.4525 136.158 20.7552 136.158 19.9997C136.158 19.2441 135.972 18.5469 135.6 17.908C135.227 17.2691 134.722 16.7636 134.083 16.3913C133.445 16.0191 132.748 15.833 131.992 15.833ZM131.992 17.4997C132.448 17.4997 132.867 17.6108 133.25 17.833C133.633 18.0552 133.936 18.358 134.158 18.7413C134.38 19.1247 134.492 19.5441 134.492 19.9997C134.492 20.4552 134.38 20.8747 134.158 21.258C133.936 21.6413 133.633 21.9441 133.25 22.1663C132.867 22.3886 132.448 22.4997 131.992 22.4997C131.537 22.4997 131.117 22.3886 130.734 22.1663C130.351 21.9441 130.048 21.6413 129.826 21.258C129.604 20.8747 129.493 20.4552 129.493 19.9997C129.493 19.5441 129.604 19.1247 129.826 18.7413C130.048 18.358 130.351 18.0552 130.734 17.833C131.117 17.6108 131.537 17.4997 131.992 17.4997ZM136.358 14.583C136.08 14.583 135.838 14.6858 135.633 14.8913C135.427 15.0969 135.325 15.3413 135.325 15.6247C135.325 15.908 135.427 16.1525 135.633 16.358C135.838 16.5636 136.083 16.6663 136.366 16.6663C136.649 16.6663 136.894 16.5636 137.099 16.358C137.305 16.1525 137.407 15.908 137.407 15.6247C137.407 15.3413 137.305 15.0969 137.099 14.8913C136.894 14.6858 136.647 14.583 136.358 14.583Z" fill="white"/>
<path d="M168 20C168 8.95431 176.954 0 188 0C199.046 0 208 8.95431 208 20C208 31.0457 199.046 40 188 40C176.954 40 168 31.0457 168 20Z" fill="white" fill-opacity="0.1"/>
<path d="M183.393 14.1667C183.382 14.5111 183.282 14.8222 183.093 15.1C182.905 15.3778 182.655 15.5806 182.344 15.7083C182.033 15.8361 181.71 15.8667 181.377 15.8C181.044 15.7333 180.758 15.5778 180.519 15.3333C180.28 15.0889 180.133 14.8 180.077 14.4667C180.022 14.1333 180.061 13.8111 180.194 13.5C180.327 13.1889 180.538 12.9417 180.827 12.7583C181.116 12.575 181.433 12.4889 181.777 12.5C182.221 12.5111 182.602 12.6778 182.918 13C183.235 13.3222 183.393 13.7111 183.393 14.1667ZM183.443 17.0667H180.111V27.5H183.443V17.0667ZM188.709 17.0667H185.393V27.5H188.675V22.0333C188.675 21.4444 188.809 20.9444 189.075 20.5333C189.331 20.1556 189.658 19.8944 190.058 19.75C190.458 19.6056 190.858 19.5944 191.258 19.7167C191.658 19.8389 191.98 20.0833 192.224 20.45C192.502 20.8722 192.641 21.4 192.641 22.0333V27.5H195.94V20.9C195.94 19.9222 195.729 19.0944 195.307 18.4167C194.94 17.8278 194.429 17.3833 193.774 17.0833C193.174 16.8278 192.524 16.7167 191.825 16.75C191.147 16.7833 190.519 16.9528 189.942 17.2583C189.364 17.5639 188.942 17.9667 188.675 18.4667L188.709 17.0667Z" fill="white"/>
<path d="M224 20C224 8.95431 232.954 0 244 0C255.046 0 264 8.95431 264 20C264 31.0457 255.046 40 244 40C232.954 40 224 31.0457 224 20Z" fill="white" fill-opacity="0.1"/>
<path d="M244.192 13.3337C245.147 13.3337 246.064 13.3559 246.941 13.4003L247.358 13.417C248.824 13.4837 249.813 13.5892 250.324 13.7337C250.724 13.8448 251.068 14.0503 251.357 14.3503C251.646 14.6503 251.84 15.0059 251.94 15.417C252.085 15.9725 252.19 16.8003 252.257 17.9003C252.29 18.5448 252.312 19.2003 252.323 19.867V20.1337C252.312 20.8003 252.29 21.4559 252.257 22.1003C252.19 23.2003 252.085 24.0281 251.94 24.5837C251.84 24.9948 251.646 25.3503 251.357 25.6503C251.068 25.9503 250.724 26.1559 250.324 26.267C249.813 26.4114 248.824 26.517 247.358 26.5837L246.941 26.6003C246.064 26.6337 245.147 26.6559 244.192 26.667H243.792C242.759 26.6559 241.776 26.6337 240.843 26.6003C239.254 26.5337 238.194 26.4225 237.66 26.267C237.26 26.1559 236.916 25.9503 236.627 25.6503C236.338 25.3503 236.144 24.9948 236.044 24.5837C235.9 24.0281 235.794 23.2003 235.728 22.1003C235.694 21.4559 235.672 20.8003 235.661 20.1337V19.867C235.672 19.2003 235.694 18.5448 235.728 17.9003C235.794 16.8003 235.9 15.9725 236.044 15.417C236.144 15.0059 236.338 14.6503 236.627 14.3503C236.916 14.0503 237.26 13.8448 237.66 13.7337C238.194 13.5781 239.254 13.467 240.843 13.4003C241.765 13.367 242.748 13.3448 243.792 13.3337H244.192ZM242.326 17.0837V22.917L247.325 20.0003L242.326 17.0837Z" fill="white"/>
</svg>
