<svg width="17" height="24" viewBox="0 0 17 24" fill="none" xmlns="http://www.w3.org/2000/svg">
<path d="M5.63088 15.6667C5.5687 15.3911 5.42213 15.0978 5.19116 14.7867C5.05791 14.6089 4.84471 14.3689 4.55156 14.0667C4.36501 13.88 4.24064 13.7467 4.17846 13.6667C3.80536 13.2044 3.51665 12.6933 3.31233 12.1333C3.10802 11.5556 3.00586 10.9556 3.00586 10.3333C3.00586 9.36444 3.25015 8.46667 3.73873 7.64C4.20955 6.84 4.84471 6.20444 5.64421 5.73333C6.47036 5.24444 7.36758 5 8.33586 5C9.30414 5 10.2014 5.24444 11.0275 5.73333C11.827 6.20444 12.4622 6.84 12.933 7.64C13.4216 8.46667 13.6659 9.36444 13.6659 10.3333C13.6659 10.9556 13.5637 11.5556 13.3594 12.1333C13.1551 12.6933 12.8664 13.2044 12.4933 13.6667C12.4311 13.7467 12.3067 13.88 12.1202 14.0667C11.827 14.3689 11.6138 14.6089 11.4806 14.7867C11.2496 15.0978 11.103 15.3911 11.0408 15.6667H5.63088ZM11.0009 17V17.6667C11.0009 17.9067 10.9409 18.1289 10.821 18.3333C10.701 18.5378 10.5389 18.7 10.3346 18.82C10.1303 18.94 9.90821 19 9.66836 19H7.00336C6.76351 19 6.54143 18.94 6.33711 18.82C6.13279 18.7 5.97067 18.5378 5.85075 18.3333C5.73082 18.1289 5.67086 17.9067 5.67086 17.6667V17H11.0009ZM9.00211 10.3333V7.66667L6.00398 11.6667H7.66961V14.3333L10.6677 10.3333H9.00211Z" fill="#2563EB"/>
</svg>
