<svg width="17" height="24" viewBox="0 0 17 24" fill="none" xmlns="http://www.w3.org/2000/svg">
<path d="M8.33584 10.6667C8.81554 10.6667 9.25971 10.5467 9.66834 10.3067C10.077 10.0667 10.4012 9.7423 10.6411 9.33342C10.8809 8.92453 11.0008 8.48008 11.0008 8.00008C11.0008 7.52008 10.8809 7.07564 10.6411 6.66675C10.4012 6.25786 10.077 5.93342 9.66834 5.69342C9.25971 5.45341 8.81554 5.33342 8.33584 5.33342C7.85614 5.33342 7.41197 5.45341 7.00334 5.69342C6.59471 5.93342 6.27046 6.25786 6.03061 6.66675C5.79076 7.07564 5.67084 7.52008 5.67084 8.00008C5.67084 8.48008 5.79076 8.92453 6.03061 9.33342C6.27046 9.7423 6.59471 10.0667 7.00334 10.3067C7.41197 10.5467 7.85614 10.6667 8.33584 10.6667ZM4.00521 12.6667C4.30725 12.6667 4.58485 12.5912 4.83803 12.4401C5.0912 12.289 5.2933 12.0867 5.44431 11.8334C5.59533 11.5801 5.67084 11.3023 5.67084 11.0001C5.67084 10.6979 5.59533 10.4201 5.44431 10.1667C5.2933 9.91341 5.0912 9.71119 4.83803 9.56008C4.58485 9.40897 4.30725 9.33342 4.00521 9.33342C3.70318 9.33342 3.42558 9.40897 3.1724 9.56008C2.91923 9.71119 2.71713 9.91341 2.56611 10.1667C2.4151 10.4201 2.33959 10.6979 2.33959 11.0001C2.33959 11.3023 2.4151 11.5801 2.56611 11.8334C2.71713 12.0867 2.91923 12.289 3.1724 12.4401C3.42558 12.5912 3.70318 12.6667 4.00521 12.6667ZM14.3321 11.0001C14.3321 11.3023 14.2566 11.5801 14.1056 11.8334C13.9545 12.0867 13.7525 12.289 13.4993 12.4401C13.2461 12.5912 12.9685 12.6667 12.6665 12.6667C12.3644 12.6667 12.0868 12.5912 11.8337 12.4401C11.5805 12.289 11.3784 12.0867 11.2274 11.8334C11.0763 11.5801 11.0008 11.3023 11.0008 11.0001C11.0008 10.6979 11.0763 10.4201 11.2274 10.1667C11.3784 9.91341 11.5805 9.71119 11.8337 9.56008C12.0868 9.40897 12.3644 9.33342 12.6665 9.33342C12.9685 9.33342 13.2461 9.40897 13.4993 9.56008C13.7525 9.71119 13.9545 9.91341 14.1056 10.1667C14.2566 10.4201 14.3321 10.6979 14.3321 11.0001ZM8.33584 11.3334C8.93991 11.3334 9.49734 11.4823 10.0081 11.7801C10.5189 12.0779 10.9231 12.4823 11.2207 12.9934C11.5183 13.5045 11.6671 14.0623 11.6671 14.6667V18.6667H5.00459V14.6667C5.00459 14.0623 5.15339 13.5045 5.45098 12.9934C5.74857 12.4823 6.15276 12.0779 6.66355 11.7801C7.17434 11.4823 7.73177 11.3334 8.33584 11.3334ZM3.67209 14.6667C3.67209 14.2134 3.73427 13.769 3.85864 13.3334L3.75204 13.3467C3.37006 13.3912 3.01916 13.5201 2.69936 13.7334C2.37956 13.9467 2.12861 14.2245 1.9465 14.5667C1.76439 14.909 1.67334 15.2756 1.67334 15.6667V18.6667H3.67209V14.6667ZM14.9983 18.6667V15.6667C14.9983 15.2579 14.9006 14.8801 14.7052 14.5334C14.5098 14.1867 14.2455 13.9067 13.9124 13.6934C13.5792 13.4801 13.2128 13.3601 12.813 13.3334C12.9374 13.769 12.9996 14.2134 12.9996 14.6667V18.6667H14.9983Z" fill="#16A34A"/>
</svg>
