<svg width="25" height="32" viewBox="0 0 25 32" fill="none" xmlns="http://www.w3.org/2000/svg">
<path d="M12.5 5L20.72 6.82C20.9467 6.87333 21.1333 6.99333 21.28 7.18C21.4267 7.36667 21.5 7.57333 21.5 7.8V17.78C21.5 18.7933 21.2633 19.74 20.79 20.62C20.3167 21.5 19.66 22.22 18.82 22.78L12.5 27L6.18 22.78C5.34 22.22 4.68333 21.5 4.21 20.62C3.73667 19.74 3.5 18.7933 3.5 17.78V7.8C3.5 7.57333 3.57333 7.36667 3.72 7.18C3.86667 6.99333 4.05333 6.87333 4.28 6.82L12.5 5ZM16.96 12.22L12 17.18L9.18 14.34L7.76 15.76L12 20L18.36 13.64L16.96 12.22Z" fill="#22C55E"/>
</svg>
