<svg width="25" height="32" viewBox="0 0 25 32" fill="none" xmlns="http://www.w3.org/2000/svg">
<path d="M7.5 15.5C6.68667 15.5 5.93667 15.2967 5.25 14.89C4.56333 14.4833 4.01667 13.9367 3.61 13.25C3.20333 12.5633 3 11.8133 3 11C3 10.1867 3.20333 9.43667 3.61 8.75C4.01667 8.06333 4.56333 7.51667 5.25 7.11C5.93667 6.70333 6.68667 6.5 7.5 6.5C8.31333 6.5 9.06333 6.70333 9.75 7.11C10.4367 7.51667 10.9833 8.06333 11.39 8.75C11.7967 9.43667 12 10.1867 12 11C12 11.8133 11.7967 12.5633 11.39 13.25C10.9833 13.9367 10.4367 14.4833 9.75 14.89C9.06333 15.2967 8.31333 15.5 7.5 15.5ZM18 19.5C17.28 19.5 16.6133 19.32 16 18.96C15.3867 18.6 14.9 18.1133 14.54 17.5C14.18 16.8867 14 16.22 14 15.5C14 14.78 14.18 14.1133 14.54 13.5C14.9 12.8867 15.3867 12.4 16 12.04C16.6133 11.68 17.28 11.5 18 11.5C18.72 11.5 19.3867 11.68 20 12.04C20.6133 12.4 21.1 12.8867 21.46 13.5C21.82 14.1133 22 14.78 22 15.5C22 16.22 21.82 16.8867 21.46 17.5C21.1 18.1133 20.6133 18.6 20 18.96C19.3867 19.32 18.72 19.5 18 19.5ZM18 20.5C18.8133 20.5 19.5633 20.7033 20.25 21.11C20.9367 21.5167 21.4833 22.0633 21.89 22.75C22.2967 23.4367 22.5 24.1867 22.5 25V25.5H13.5V25C13.5 24.1867 13.7033 23.4367 14.11 22.75C14.5167 22.0633 15.0633 21.5167 15.75 21.11C16.4367 20.7033 17.1867 20.5 18 20.5ZM7.5 16.5C8.40667 16.5 9.24333 16.7233 10.01 17.17C10.7767 17.6167 11.3833 18.2233 11.83 18.99C12.2767 19.7567 12.5 20.5933 12.5 21.5V25.5H2.5V21.5C2.5 20.5933 2.72333 19.7567 3.17 18.99C3.61667 18.2233 4.22333 17.6167 4.99 17.17C5.75667 16.7233 6.59333 16.5 7.5 16.5Z" fill="#3B82F6"/>
</svg>
