<svg width="25" height="32" viewBox="0 0 25 32" fill="none" xmlns="http://www.w3.org/2000/svg">
<path d="M17.5 8C18.58 8 19.5867 8.27333 20.52 8.82C21.4267 9.35333 22.1467 10.0733 22.68 10.98C23.2267 11.9133 23.5 12.92 23.5 14V18C23.5 19.08 23.2267 20.0867 22.68 21.02C22.1467 21.9267 21.4267 22.6467 20.52 23.18C19.5867 23.7267 18.58 24 17.5 24H7.5C6.42 24 5.41333 23.7267 4.48 23.18C3.57333 22.6467 2.85333 21.9267 2.32 21.02C1.77333 20.0867 1.5 19.08 1.5 18V14C1.5 12.92 1.77333 11.9133 2.32 10.98C2.85333 10.0733 3.57333 9.35333 4.48 8.82C5.41333 8.27333 6.42 8 7.5 8H17.5ZM10.5 13H8.5V15H6.5V17H8.5V19H10.5V17H12.5V15H10.5V13ZM18.5 17H16.5V19H18.5V17ZM16.5 13H14.5V15H16.5V13Z" fill="#A855F7"/>
</svg>
