<svg width="17" height="24" viewBox="0 0 17 24" fill="none" xmlns="http://www.w3.org/2000/svg">
<path d="M8.33585 4.66683L13.8124 5.88016C13.9634 5.91572 14.0878 5.99572 14.1855 6.12016C14.2832 6.24461 14.3321 6.38238 14.3321 6.5335V13.1868C14.3321 13.8624 14.1744 14.4935 13.8591 15.0802C13.5437 15.6668 13.1062 16.1468 12.5465 16.5202L8.33585 19.3335L4.12515 16.5202C3.5655 16.1468 3.128 15.6668 2.81264 15.0802C2.49728 14.4935 2.3396 13.8624 2.3396 13.1868V6.5335C2.3396 6.38238 2.38846 6.24461 2.48617 6.12016C2.58389 5.99572 2.70826 5.91572 2.85927 5.88016L8.33585 4.66683ZM11.3073 9.48016L8.00272 12.7868L6.1239 10.8935L5.17782 11.8402L8.00272 14.6668L12.2401 10.4268L11.3073 9.48016Z" fill="#16A34A"/>
</svg>
