<svg width="17" height="24" viewBox="0 0 17 24" fill="none" xmlns="http://www.w3.org/2000/svg">
<path d="M7.72303 5.06693L14.3189 6.01359L15.265 12.6136L9.13548 18.7336C9.01112 18.8669 8.85566 18.9336 8.66911 18.9336C8.48256 18.9336 8.3271 18.8669 8.20273 18.7336L1.60686 12.1336C1.47361 12.0091 1.40698 11.8536 1.40698 11.6669C1.40698 11.4803 1.47361 11.3247 1.60686 11.2003L7.72303 5.06693ZM9.61518 10.7203C9.78397 10.8891 9.98162 11.0047 10.2081 11.0669C10.4347 11.1291 10.6634 11.1291 10.8944 11.0669C11.1253 11.0047 11.3252 10.8891 11.494 10.7203C11.6628 10.5514 11.7783 10.3536 11.8405 10.1269C11.9026 9.90026 11.9026 9.67137 11.8405 9.44026C11.7783 9.20915 11.6628 9.00915 11.494 8.84026C11.3252 8.67137 11.1253 8.55582 10.8944 8.49359C10.6634 8.43137 10.4347 8.43137 10.2081 8.49359C9.98162 8.55582 9.78397 8.67137 9.61518 8.84026C9.4464 9.00915 9.33092 9.20915 9.26873 9.44026C9.20655 9.67137 9.20655 9.90026 9.26873 10.1269C9.33092 10.3536 9.4464 10.5514 9.61518 10.7203Z" fill="#9333EA"/>
</svg>
