<svg width="21" height="28" viewBox="0 0 21 28" fill="none" xmlns="http://www.w3.org/2000/svg">
<path d="M10.4218 22.333C9.28878 22.333 8.20571 22.1163 7.17264 21.683C6.184 21.2608 5.30366 20.6636 4.53163 19.8913C3.7596 19.1191 3.16253 18.2386 2.74041 17.2497C2.30719 16.2163 2.09058 15.133 2.09058 13.9997C2.09058 12.8663 2.30719 11.783 2.74041 10.7497C3.16253 9.76079 3.7596 8.88023 4.53163 8.10801C5.30366 7.33579 6.184 6.73856 7.17264 6.31634C8.20571 5.88301 9.28878 5.66634 10.4218 5.66634C11.5549 5.66634 12.6379 5.88301 13.671 6.31634C14.6597 6.73856 15.54 7.33579 16.312 8.10801C17.0841 8.88023 17.6811 9.76079 18.1032 10.7497C18.5365 11.783 18.7531 12.8663 18.7531 13.9997C18.7531 15.133 18.5365 16.2163 18.1032 17.2497C17.6811 18.2386 17.0841 19.1191 16.312 19.8913C15.54 20.6636 14.6597 21.2608 13.671 21.683C12.6379 22.1163 11.5549 22.333 10.4218 22.333ZM9.5887 17.333L15.4872 11.433L14.3042 10.2663L9.5887 14.983L7.23929 12.6163L6.05625 13.7997L9.5887 17.333Z" fill="#86EFAC"/>
</svg>
