<svg width="1120" height="60" viewBox="0 0 1120 60" fill="none" xmlns="http://www.w3.org/2000/svg">
<path d="M539.45 7.05L560 2.5L580.55 7.05C581.117 7.18333 581.583 7.48333 581.95 7.95C582.317 8.41666 582.5 8.93333 582.5 9.5V34.45C582.5 36.9833 581.908 39.35 580.725 41.55C579.542 43.75 577.9 45.55 575.8 46.95L560 57.5L544.2 46.95C542.1 45.55 540.458 43.75 539.275 41.55C538.092 39.35 537.5 36.9833 537.5 34.45V9.5C537.5 8.93333 537.683 8.41666 538.05 7.95C538.417 7.48333 538.883 7.18333 539.45 7.05ZM560 33.75L567.35 37.6L565.95 29.45L571.9 23.65L563.65 22.45L560 15L556.35 22.45L548.1 23.65L554.05 29.45L552.65 37.6L560 33.75Z" fill="white"/>
</svg>
