<svg width="21" height="30" viewBox="0 0 21 30" fill="none" xmlns="http://www.w3.org/2000/svg">
<path d="M10.414 24.333C9.28096 24.333 8.1979 24.1163 7.16483 23.683C6.17618 23.2608 5.29585 22.6636 4.52382 21.8913C3.75179 21.1191 3.15472 20.2386 2.7326 19.2497C2.29938 18.2163 2.08276 17.133 2.08276 15.9997C2.08276 14.8663 2.29938 13.783 2.7326 12.7497C3.15472 11.7608 3.75179 10.8802 4.52382 10.108C5.29585 9.33579 6.17618 8.73856 7.16483 8.31634C8.1979 7.88301 9.28096 7.66634 10.414 7.66634C11.5471 7.66634 12.6301 7.88301 13.6632 8.31634C14.6518 8.73856 15.5322 9.33579 16.3042 10.108C17.0762 10.8802 17.6733 11.7608 18.0954 12.7497C18.5287 13.783 18.7453 14.8663 18.7453 15.9997C18.7453 17.133 18.5287 18.2163 18.0954 19.2497C17.6733 20.2386 17.0762 21.1191 16.3042 21.8913C15.5322 22.6636 14.6518 23.2608 13.6632 23.683C12.6301 24.1163 11.5471 24.333 10.414 24.333ZM9.58089 19.333L15.4794 13.433L14.2964 12.2663L9.58089 16.983L7.23148 14.6163L6.04844 15.7997L9.58089 19.333Z" fill="url(#paint0_linear_1_952)"/>
<defs>
<linearGradient id="paint0_linear_1_952" x1="-14.5797" y1="32" x2="18.7453" y2="32" gradientUnits="userSpaceOnUse">
<stop stop-color="#3B82F6"/>
<stop offset="1" stop-color="#2563EB"/>
</linearGradient>
</defs>
</svg>
