<svg width="56" height="72" viewBox="0 0 56 72" fill="none" xmlns="http://www.w3.org/2000/svg">
<path d="M0 12C0 5.37258 5.37258 0 12 0H44C50.6274 0 56 5.37258 56 12V44C56 50.6274 50.6274 56 44 56H12C5.37258 56 0 50.6274 0 44V12Z" fill="url(#paint0_linear_1_678)"/>
<path d="M31 18.5C31.72 18.5 32.3867 18.68 33 19.04C33.6133 19.4 34.1 19.8867 34.46 20.5C34.82 21.1133 35 21.78 35 22.5C35 23.22 34.82 23.8867 34.46 24.5H39V26.5H37V36.5C37 36.78 36.9033 37.0167 36.71 37.21C36.5167 37.4033 36.28 37.5 36 37.5H20C19.72 37.5 19.4833 37.4033 19.29 37.21C19.0967 37.0167 19 36.78 19 36.5V26.5H17V24.5H21.54C21.18 23.8867 21 23.22 21 22.5C21 21.78 21.18 21.1133 21.54 20.5C21.9 19.8867 22.3867 19.4 23 19.04C23.6133 18.68 24.28 18.5 25 18.5C25.5867 18.5 26.14 18.62 26.66 18.86C27.18 19.1 27.6267 19.4333 28 19.86C28.3733 19.4333 28.82 19.1 29.34 18.86C29.86 18.62 30.4133 18.5 31 18.5ZM29 26.5H27V36.5H29V26.5ZM25 20.5C24.64 20.5 24.3067 20.59 24 20.77C23.6933 20.95 23.45 21.1933 23.27 21.5C23.09 21.8067 23 22.14 23 22.5C23 23.02 23.18 23.4733 23.54 23.86C23.9 24.2467 24.34 24.46 24.86 24.5H27V22.5C27 22.0067 26.8367 21.5733 26.51 21.2C26.1833 20.8267 25.78 20.6 25.3 20.52L25 20.5ZM31 20.5C30.48 20.5 30.0267 20.68 29.64 21.04C29.2533 21.4 29.04 21.84 29 22.36V24.5H31C31.52 24.5 31.9733 24.32 32.36 23.96C32.7467 23.6 32.96 23.16 33 22.64V22.5C33 22.14 32.91 21.8067 32.73 21.5C32.55 21.1933 32.3067 20.95 32 20.77C31.6933 20.59 31.36 20.5 31 20.5Z" fill="white"/>
<defs>
<linearGradient id="paint0_linear_1_678" x1="0" y1="0" x2="56" y2="0" gradientUnits="userSpaceOnUse">
<stop stop-color="#4ADE80"/>
<stop offset="1" stop-color="#16A34A"/>
</linearGradient>
</defs>
</svg>
