<svg width="64" height="88" viewBox="0 0 64 88" fill="none" xmlns="http://www.w3.org/2000/svg">
<path d="M0 16C0 7.16344 7.16344 0 16 0H48C56.8366 0 64 7.16344 64 16V48C64 56.8366 56.8366 64 48 64H16C7.16344 64 0 56.8366 0 48V16Z" fill="url(#paint0_linear_1_907)"/>
<path d="M44.4922 25.75V28.875C44.4922 30.3417 44.1255 31.7083 43.3922 32.975C42.6755 34.2083 41.7005 35.1833 40.4672 35.9C39.2005 36.6333 37.8339 37 36.3672 37H33.2422V43.25H30.7422V34.5L30.7672 33.25C30.8672 31.8667 31.2922 30.6042 32.0422 29.4625C32.7922 28.3208 33.7589 27.4167 34.9422 26.75C36.1589 26.0833 37.4672 25.75 38.8672 25.75H44.4922ZM24.4922 20.75C25.7589 20.75 26.9672 21.0083 28.1172 21.525C29.2172 22.025 30.1755 22.7292 30.9922 23.6375C31.8089 24.5458 32.4089 25.575 32.7922 26.725C31.8422 27.5417 31.0839 28.5 30.5172 29.6C29.9339 30.75 29.6005 31.9667 29.5172 33.25H28.2422C26.6589 33.25 25.1839 32.85 23.8172 32.05C22.5005 31.2833 21.4589 30.2417 20.6922 28.925C19.8922 27.5583 19.4922 26.0833 19.4922 24.5V20.75H24.4922Z" fill="white"/>
<defs>
<linearGradient id="paint0_linear_1_907" x1="0" y1="0" x2="64" y2="0" gradientUnits="userSpaceOnUse">
<stop stop-color="#3B82F6"/>
<stop offset="1" stop-color="#2563EB"/>
</linearGradient>
</defs>
</svg>
