<svg width="25" height="36" viewBox="0 0 25 36" fill="none" xmlns="http://www.w3.org/2000/svg">
<path d="M18.86 24.4999L12.5 30.8599L6.14 24.4999C4.98 23.3532 4.2 21.9932 3.8 20.4199C3.4 18.8999 3.4 17.3799 3.8 15.8599C4.2 14.2865 4.97667 12.9232 6.13 11.7699C7.28333 10.6165 8.64667 9.8332 10.22 9.41986C11.74 9.0332 13.26 9.0332 14.78 9.41986C16.3533 9.8332 17.7167 10.6165 18.87 11.7699C20.0233 12.9232 20.8 14.2865 21.2 15.8599C21.6 17.3799 21.6 18.8999 21.2 20.4199C20.8 21.9932 20.02 23.3532 18.86 24.4999ZM12.5 22.1399C13.22 22.1399 13.8867 21.9599 14.5 21.5999C15.1133 21.2399 15.6 20.7532 15.96 20.1399C16.32 19.5265 16.5 18.8565 16.5 18.1299C16.5 17.4032 16.32 16.7365 15.96 16.1299C15.6 15.5232 15.1133 15.0399 14.5 14.6799C13.8867 14.3199 13.22 14.1399 12.5 14.1399C11.78 14.1399 11.1133 14.3199 10.5 14.6799C9.88667 15.0399 9.4 15.5232 9.04 16.1299C8.68 16.7365 8.5 17.4032 8.5 18.1299C8.5 18.8565 8.68 19.5265 9.04 20.1399C9.4 20.7532 9.88667 21.2399 10.5 21.5999C11.1133 21.9599 11.78 22.1399 12.5 22.1399ZM12.5 20.1399C12.14 20.1399 11.8067 20.0499 11.5 19.8699C11.1933 19.6899 10.95 19.4465 10.77 19.1399C10.59 18.8332 10.5 18.4999 10.5 18.1399C10.5 17.7799 10.59 17.4465 10.77 17.1399C10.95 16.8332 11.1933 16.5899 11.5 16.4099C11.8067 16.2299 12.14 16.1399 12.5 16.1399C12.86 16.1399 13.1933 16.2299 13.5 16.4099C13.8067 16.5899 14.05 16.8332 14.23 17.1399C14.41 17.4465 14.5 17.7799 14.5 18.1399C14.5 18.4999 14.41 18.8332 14.23 19.1399C14.05 19.4465 13.8067 19.6899 13.5 19.8699C13.1933 20.0499 12.86 20.1399 12.5 20.1399Z" fill="#FDE047"/>
</svg>
