<svg width="64" height="88" viewBox="0 0 64 88" fill="none" xmlns="http://www.w3.org/2000/svg">
<path d="M0 16C0 7.16344 7.16344 0 16 0H48C56.8366 0 64 7.16344 64 16V48C64 56.8366 56.8366 64 48 64H16C7.16344 64 0 56.8366 0 48V16Z" fill="#F3E8FF"/>
<path d="M20.7422 22C20.7422 21.65 20.863 21.3542 21.1047 21.1125C21.3464 20.8708 21.6422 20.75 21.9922 20.75H41.9922C42.3422 20.75 42.638 20.8708 42.8797 21.1125C43.1214 21.3542 43.2422 21.65 43.2422 22V42C43.2422 42.35 43.1214 42.6458 42.8797 42.8875C42.638 43.1292 42.3422 43.25 41.9922 43.25H21.9922C21.6422 43.25 21.3464 43.1292 21.1047 42.8875C20.863 42.6458 20.7422 42.35 20.7422 42V22ZM23.2422 23.25V40.75H40.7422V23.25H23.2422ZM30.2672 27.525L36.3672 31.575C36.4839 31.6583 36.5547 31.7667 36.5797 31.9C36.6047 32.0333 36.5839 32.1583 36.5172 32.275C36.4672 32.325 36.4172 32.375 36.3672 32.425L30.2672 36.475C30.1505 36.5583 30.0255 36.5875 29.8922 36.5625C29.7589 36.5375 29.6505 36.4667 29.5672 36.35C29.5172 36.2667 29.4922 36.175 29.4922 36.075V27.925C29.4922 27.7917 29.5422 27.675 29.6422 27.575C29.7422 27.475 29.8589 27.425 29.9922 27.425C30.0922 27.425 30.1839 27.4583 30.2672 27.525Z" fill="url(#paint0_linear_1_93)"/>
<defs>
<linearGradient id="paint0_linear_1_93" x1="-1.75781" y1="32" x2="43.2422" y2="32" gradientUnits="userSpaceOnUse">
<stop stop-color="#A855F7"/>
<stop offset="1" stop-color="#9333EA"/>
</linearGradient>
</defs>
</svg>
