<svg width="64" height="88" viewBox="0 0 64 88" fill="none" xmlns="http://www.w3.org/2000/svg">
<path d="M0 16C0 7.16344 7.16344 0 16 0H48C56.8366 0 64 7.16344 64 16V48C64 56.8366 56.8366 64 48 64H16C7.16344 64 0 56.8366 0 48V16Z" fill="url(#paint0_linear_1_528)"/>
<path d="M30.7422 35.125V45.125H20.7422C20.7422 43.3083 21.2005 41.625 22.1172 40.075C23.0005 38.575 24.1922 37.3833 25.6922 36.5C27.2422 35.5833 28.9255 35.125 30.7422 35.125ZM30.7422 33.875C29.3755 33.875 28.1172 33.5333 26.9672 32.85C25.8339 32.1833 24.9339 31.2833 24.2672 30.15C23.5839 29 23.2422 27.7417 23.2422 26.375C23.2422 25.0083 23.5839 23.75 24.2672 22.6C24.9339 21.4667 25.8339 20.5667 26.9672 19.9C28.1172 19.2167 29.3755 18.875 30.7422 18.875C32.1089 18.875 33.3672 19.2167 34.5172 19.9C35.6505 20.5667 36.5505 21.4667 37.2172 22.6C37.9005 23.75 38.2422 25.0083 38.2422 26.375C38.2422 27.7417 37.9005 29 37.2172 30.15C36.5505 31.2833 35.6505 32.1833 34.5172 32.85C33.3672 33.5333 32.1089 33.875 30.7422 33.875ZM41.9922 38.875H43.2422V45.125H33.2422V38.875H34.4922V37.625C34.4922 36.9417 34.6589 36.3125 34.9922 35.7375C35.3255 35.1625 35.7797 34.7083 36.3547 34.375C36.9297 34.0417 37.5589 33.875 38.2422 33.875C38.9255 33.875 39.5547 34.0417 40.1297 34.375C40.7047 34.7083 41.1589 35.1625 41.4922 35.7375C41.8255 36.3125 41.9922 36.9417 41.9922 37.625V38.875ZM39.4922 38.875V37.625C39.4922 37.275 39.3714 36.9792 39.1297 36.7375C38.888 36.4958 38.5922 36.375 38.2422 36.375C37.8922 36.375 37.5964 36.4958 37.3547 36.7375C37.113 36.9792 36.9922 37.275 36.9922 37.625V38.875H39.4922Z" fill="white"/>
<defs>
<linearGradient id="paint0_linear_1_528" x1="0" y1="0" x2="64" y2="0" gradientUnits="userSpaceOnUse">
<stop stop-color="#22C55E"/>
<stop offset="1" stop-color="#16A34A"/>
</linearGradient>
</defs>
</svg>
