<svg width="64" height="88" viewBox="0 0 64 88" fill="none" xmlns="http://www.w3.org/2000/svg">
<path d="M0 16C0 7.16344 7.16344 0 16 0H48C56.8366 0 64 7.16344 64 16V48C64 56.8366 56.8366 64 48 64H16C7.16344 64 0 56.8366 0 48V16Z" fill="#FEE2E2"/>
<path d="M36.9922 22C37.3422 22 37.638 22.1208 37.8797 22.3625C38.1214 22.6042 38.2422 22.9 38.2422 23.25V28.5L44.7672 23.95C44.9005 23.85 45.0547 23.8125 45.2297 23.8375C45.4047 23.8625 45.5339 23.95 45.6172 24.1C45.7005 24.2 45.7422 24.3167 45.7422 24.45V39.55C45.7422 39.7167 45.6797 39.8625 45.5547 39.9875C45.4297 40.1125 45.2839 40.175 45.1172 40.175C44.9839 40.175 44.8672 40.1333 44.7672 40.05L38.2422 35.5V40.75C38.2422 41.1 38.1214 41.3958 37.8797 41.6375C37.638 41.8792 37.3422 42 36.9922 42H19.4922C19.1422 42 18.8464 41.8792 18.6047 41.6375C18.363 41.3958 18.2422 41.1 18.2422 40.75V23.25C18.2422 22.9 18.363 22.6042 18.6047 22.3625C18.8464 22.1208 19.1422 22 19.4922 22H36.9922ZM35.7422 24.5H20.7422V39.5H35.7422V24.5ZM26.2422 28.025C26.3422 28.025 26.4339 28.0583 26.5172 28.125L31.9422 31.575C32.0589 31.6583 32.1339 31.7667 32.1672 31.9C32.2005 32.0333 32.1839 32.1583 32.1172 32.275C32.0672 32.325 32.0089 32.375 31.9422 32.425L26.5172 35.875C26.4005 35.9583 26.2755 35.9833 26.1422 35.95C26.0089 35.9167 25.9005 35.8417 25.8172 35.725C25.7672 35.6417 25.7422 35.5583 25.7422 35.475V28.525C25.7422 28.3917 25.7922 28.275 25.8922 28.175C25.9922 28.075 26.1089 28.025 26.2422 28.025ZM43.2422 28.05L38.2422 31.55V32.45L43.2422 35.95V28.05Z" fill="url(#paint0_linear_1_153)"/>
<defs>
<linearGradient id="paint0_linear_1_153" x1="-9.25781" y1="32" x2="45.7422" y2="32" gradientUnits="userSpaceOnUse">
<stop stop-color="#EF4444"/>
<stop offset="1" stop-color="#DC2626"/>
</linearGradient>
</defs>
</svg>
