<svg width="56" height="80" viewBox="0 0 56 80" fill="none" xmlns="http://www.w3.org/2000/svg">
<path d="M0 16C0 7.16344 7.16344 0 16 0H40C48.8366 0 56 7.16344 56 16V40C56 48.8366 48.8366 56 40 56H16C7.16344 56 0 48.8366 0 40V16Z" fill="url(#paint0_linear_1_213)"/>
<path d="M28 38C26.64 38 25.34 37.74 24.1 37.22C22.9133 36.7133 21.8567 35.9967 20.93 35.07C20.0033 34.1433 19.2867 33.0867 18.78 31.9C18.26 30.66 18 29.36 18 28C18 26.64 18.26 25.34 18.78 24.1C19.2867 22.9133 20.0033 21.8567 20.93 20.93C21.8567 20.0033 22.9133 19.2867 24.1 18.78C25.34 18.26 26.64 18 28 18C29.36 18 30.66 18.26 31.9 18.78C33.0867 19.2867 34.1433 20.0033 35.07 20.93C35.9967 21.8567 36.7133 22.9133 37.22 24.1C37.74 25.34 38 26.64 38 28C38 29.36 37.74 30.66 37.22 31.9C36.7133 33.0867 35.9967 34.1433 35.07 35.07C34.1433 35.9967 33.0867 36.7133 31.9 37.22C30.66 37.74 29.36 38 28 38ZM28 36C29.4533 36 30.8 35.6333 32.04 34.9C33.24 34.1933 34.1933 33.24 34.9 32.04C35.6333 30.8 36 29.4533 36 28C36 26.5467 35.6333 25.2 34.9 23.96C34.1933 22.76 33.24 21.8067 32.04 21.1C30.8 20.3667 29.4533 20 28 20C26.5467 20 25.2 20.3667 23.96 21.1C22.76 21.8067 21.8067 22.76 21.1 23.96C20.3667 25.2 20 26.5467 20 28C20 29.4533 20.3667 30.8 21.1 32.04C21.8067 33.24 22.76 34.1933 23.96 34.9C25.2 35.6333 26.5467 36 28 36ZM23 28H25C25 28.5467 25.1333 29.05 25.4 29.51C25.6667 29.97 26.03 30.3333 26.49 30.6C26.95 30.8667 27.4533 31 28 31C28.5467 31 29.05 30.8667 29.51 30.6C29.97 30.3333 30.3333 29.97 30.6 29.51C30.8667 29.05 31 28.5467 31 28H33C33 28.9067 32.7767 29.7433 32.33 30.51C31.8833 31.2767 31.2767 31.8833 30.51 32.33C29.7433 32.7767 28.9067 33 28 33C27.0933 33 26.2567 32.7767 25.49 32.33C24.7233 31.8833 24.1167 31.2767 23.67 30.51C23.2233 29.7433 23 28.9067 23 28Z" fill="white"/>
<defs>
<linearGradient id="paint0_linear_1_213" x1="0" y1="0" x2="56" y2="0" gradientUnits="userSpaceOnUse">
<stop stop-color="#EC4899"/>
<stop offset="1" stop-color="#DB2777"/>
</linearGradient>
</defs>
</svg>
