<svg width="64" height="88" viewBox="0 0 64 88" fill="none" xmlns="http://www.w3.org/2000/svg">
<path d="M0 16C0 7.16344 7.16344 0 16 0H48C56.8366 0 64 7.16344 64 16V48C64 56.8366 56.8366 64 48 64H16C7.16344 64 0 56.8366 0 48V16Z" fill="#DBEAFE"/>
<path d="M24.4422 35.425L18.8672 39.8V20.425C18.8672 20.0917 18.988 19.8042 19.2297 19.5625C19.4714 19.3209 19.7672 19.1917 20.1172 19.175H38.8672C39.2172 19.175 39.513 19.3 39.7547 19.55C39.9964 19.8 40.1172 20.0917 40.1172 20.425V35.425H24.4422ZM23.5672 32.925H37.6172V21.675H21.3672V34.675L23.5672 32.925ZM27.6172 37.925H40.4172L42.6172 39.675V26.675H43.8672C44.2172 26.6917 44.513 26.8209 44.7547 27.0625C44.9964 27.3042 45.1172 27.5917 45.1172 27.925V44.8L39.5422 40.425H28.8672C28.5172 40.425 28.2214 40.3042 27.9797 40.0625C27.738 39.8209 27.6172 39.525 27.6172 39.175V37.925Z" fill="url(#paint0_linear_1_117)"/>
<defs>
<linearGradient id="paint0_linear_1_117" x1="-7.38281" y1="32" x2="45.1172" y2="32" gradientUnits="userSpaceOnUse">
<stop stop-color="#3B82F6"/>
<stop offset="1" stop-color="#2563EB"/>
</linearGradient>
</defs>
</svg>
