<svg width="56" height="72" viewBox="0 0 56 72" fill="none" xmlns="http://www.w3.org/2000/svg">
<path d="M0 12C0 5.37258 5.37258 0 12 0H44C50.6274 0 56 5.37258 56 12V44C56 50.6274 50.6274 56 44 56H12C5.37258 56 0 50.6274 0 44V12Z" fill="url(#paint0_linear_1_802)"/>
<path d="M23 27.5C22.1867 27.5 21.4367 27.2967 20.75 26.89C20.0633 26.4833 19.5167 25.9367 19.11 25.25C18.7033 24.5633 18.5 23.8133 18.5 23C18.5 22.1867 18.7033 21.4367 19.11 20.75C19.5167 20.0633 20.0633 19.5167 20.75 19.11C21.4367 18.7033 22.1867 18.5 23 18.5C23.8133 18.5 24.5633 18.7033 25.25 19.11C25.9367 19.5167 26.4833 20.0633 26.89 20.75C27.2967 21.4367 27.5 22.1867 27.5 23C27.5 23.8133 27.2967 24.5633 26.89 25.25C26.4833 25.9367 25.9367 26.4833 25.25 26.89C24.5633 27.2967 23.8133 27.5 23 27.5ZM33.5 31.5C32.78 31.5 32.1133 31.32 31.5 30.96C30.8867 30.6 30.4 30.1133 30.04 29.5C29.68 28.8867 29.5 28.22 29.5 27.5C29.5 26.78 29.68 26.1133 30.04 25.5C30.4 24.8867 30.8867 24.4 31.5 24.04C32.1133 23.68 32.78 23.5 33.5 23.5C34.22 23.5 34.8867 23.68 35.5 24.04C36.1133 24.4 36.6 24.8867 36.96 25.5C37.32 26.1133 37.5 26.78 37.5 27.5C37.5 28.22 37.32 28.8867 36.96 29.5C36.6 30.1133 36.1133 30.6 35.5 30.96C34.8867 31.32 34.22 31.5 33.5 31.5ZM33.5 32.5C34.3133 32.5 35.0633 32.7033 35.75 33.11C36.4367 33.5167 36.9833 34.0633 37.39 34.75C37.7967 35.4367 38 36.1867 38 37V37.5H29V37C29 36.1867 29.2033 35.4367 29.61 34.75C30.0167 34.0633 30.5633 33.5167 31.25 33.11C31.9367 32.7033 32.6867 32.5 33.5 32.5ZM23 28.5C23.9067 28.5 24.7433 28.7233 25.51 29.17C26.2767 29.6167 26.8833 30.2233 27.33 30.99C27.7767 31.7567 28 32.5933 28 33.5V37.5H18V33.5C18 32.5933 18.2233 31.7567 18.67 30.99C19.1167 30.2233 19.7233 29.6167 20.49 29.17C21.2567 28.7233 22.0933 28.5 23 28.5Z" fill="white"/>
<defs>
<linearGradient id="paint0_linear_1_802" x1="0" y1="0" x2="56" y2="0" gradientUnits="userSpaceOnUse">
<stop stop-color="#22C55E"/>
<stop offset="1" stop-color="#3B82F6"/>
</linearGradient>
</defs>
</svg>
