<svg width="68" height="92" viewBox="0 0 68 92" fill="none" xmlns="http://www.w3.org/2000/svg">
<path d="M0 16.1403C0 7.22627 7.22627 0 16.1403 0H51.649C60.5631 0 67.7893 7.22627 67.7893 16.1403V51.6492C67.7893 60.5633 60.5631 67.7895 51.649 67.7895H16.1403C7.22628 67.7895 0 60.5633 0 51.6492V16.1403Z" fill="url(#paint0_linear_1_992)"/>
<path d="M43.186 44.109C43.186 44.4621 43.0641 44.7605 42.8203 45.0043C42.5765 45.2481 42.2781 45.37 41.925 45.37H24.2716C23.9185 45.37 23.6201 45.2481 23.3763 45.0043C23.1325 44.7605 23.0106 44.4621 23.0106 44.109V32.7604H19.2277L32.2408 20.9326C32.493 20.714 32.7788 20.6047 33.0983 20.6047C33.4177 20.6047 33.7036 20.714 33.9557 20.9326L46.9689 32.7604H43.186V44.109ZM33.0983 40.3262L37.3351 36.0893C37.705 35.7363 37.953 35.3159 38.0791 34.8284C38.2052 34.3408 38.2052 33.8532 38.0791 33.3657C37.953 32.8781 37.705 32.4536 37.3351 32.0921C36.9652 31.7306 36.5365 31.4826 36.0489 31.3481C35.5614 31.2136 35.0738 31.2136 34.5862 31.3481C34.0987 31.4826 33.6783 31.7264 33.3253 32.0795L33.0983 32.3064L32.8713 32.0795C32.5182 31.7264 32.0979 31.4826 31.6104 31.3481C31.1228 31.2136 30.6352 31.2136 30.1476 31.3481C29.6601 31.4826 29.2313 31.7306 28.8615 32.0921C28.4916 32.4536 28.2436 32.8781 28.1175 33.3657C27.9914 33.8532 27.9914 34.3408 28.1175 34.8284C28.2436 35.3159 28.4916 35.7363 28.8615 36.0893L33.0983 40.3262Z" fill="white"/>
<defs>
<linearGradient id="paint0_linear_1_992" x1="0" y1="0" x2="67.7893" y2="0" gradientUnits="userSpaceOnUse">
<stop stop-color="#A855F7"/>
<stop offset="1" stop-color="#EC4899"/>
</linearGradient>
</defs>
</svg>
