<svg width="25" height="36" viewBox="0 0 25 36" fill="none" xmlns="http://www.w3.org/2000/svg">
<path d="M12.5 30C11.14 30 9.84 29.74 8.6 29.22C7.41333 28.7133 6.35667 27.9967 5.43 27.07C4.50333 26.1433 3.78667 25.0867 3.28 23.9C2.76 22.66 2.5 21.36 2.5 20C2.5 18.64 2.76 17.34 3.28 16.1C3.78667 14.9133 4.50333 13.8567 5.43 12.93C6.35667 12.0033 7.41333 11.2867 8.6 10.78C9.84 10.26 11.14 10 12.5 10C13.86 10 15.16 10.26 16.4 10.78C17.5867 11.2867 18.6433 12.0033 19.57 12.93C20.4967 13.8567 21.2133 14.9133 21.72 16.1C22.24 17.34 22.5 18.64 22.5 20C22.5 21.36 22.24 22.66 21.72 23.9C21.2133 25.0867 20.4967 26.1433 19.57 27.07C18.6433 27.9967 17.5867 28.7133 16.4 29.22C15.16 29.74 13.86 30 12.5 30ZM13.5 20V15H11.5V22H17.5V20H13.5Z" fill="#93C5FD"/>
</svg>
