<svg width="64" height="88" viewBox="0 0 64 88" fill="none" xmlns="http://www.w3.org/2000/svg">
<path d="M0 16C0 7.16344 7.16344 0 16 0H48C56.8366 0 64 7.16344 64 16V48C64 56.8366 56.8366 64 48 64H16C7.16344 64 0 56.8366 0 48V16Z" fill="url(#paint0_linear_1_292)"/>
<path d="M31.9922 44.5C30.2922 44.5 28.6672 44.175 27.1172 43.525C25.6339 42.8917 24.313 41.9958 23.1547 40.8375C21.9964 39.6792 21.1005 38.3583 20.4672 36.875C19.8172 35.325 19.4922 33.7 19.4922 32C19.4922 30.3 19.8172 28.675 20.4672 27.125C21.1005 25.6417 21.9964 24.3208 23.1547 23.1625C24.313 22.0042 25.6339 21.1083 27.1172 20.475C28.6672 19.825 30.2922 19.5 31.9922 19.5C33.6922 19.5 35.3172 19.825 36.8672 20.475C38.3505 21.1083 39.6714 22.0042 40.8297 23.1625C41.988 24.3208 42.8839 25.6417 43.5172 27.125C44.1672 28.675 44.4922 30.3 44.4922 32C44.4922 33.7 44.1672 35.325 43.5172 36.875C42.8839 38.3583 41.988 39.6792 40.8297 40.8375C39.6714 41.9958 38.3505 42.8917 36.8672 43.525C35.3172 44.175 33.6922 44.5 31.9922 44.5ZM25.7422 32C25.7422 33.1333 26.0214 34.1792 26.5797 35.1375C27.138 36.0958 27.8964 36.8542 28.8547 37.4125C29.813 37.9708 30.8589 38.25 31.9922 38.25C33.1255 38.25 34.1714 37.9708 35.1297 37.4125C36.088 36.8542 36.8464 36.0958 37.4047 35.1375C37.963 34.1792 38.2422 33.1333 38.2422 32H35.7422C35.7422 32.6833 35.5755 33.3125 35.2422 33.8875C34.9089 34.4625 34.4547 34.9167 33.8797 35.25C33.3047 35.5833 32.6755 35.75 31.9922 35.75C31.3089 35.75 30.6797 35.5833 30.1047 35.25C29.5297 34.9167 29.0755 34.4625 28.7422 33.8875C28.4089 33.3125 28.2422 32.6833 28.2422 32H25.7422Z" fill="white"/>
<defs>
<linearGradient id="paint0_linear_1_292" x1="0" y1="0" x2="64" y2="0" gradientUnits="userSpaceOnUse">
<stop stop-color="#A855F7"/>
<stop offset="1" stop-color="#9333EA"/>
</linearGradient>
</defs>
</svg>
