<svg width="64" height="88" viewBox="0 0 64 88" fill="none" xmlns="http://www.w3.org/2000/svg">
<path d="M0 16C0 7.16344 7.16344 0 16 0H48C56.8366 0 64 7.16344 64 16V48C64 56.8366 56.8366 64 48 64H16C7.16344 64 0 56.8366 0 48V16Z" fill="#FEF9C3"/>
<path d="M29.4672 38.875H30.7422V32.625H33.2422V38.875H34.5172C34.6005 38.1583 34.8339 37.4583 35.2172 36.775C35.5505 36.1583 36.0422 35.4917 36.6922 34.775L37.0422 34.4C37.5255 33.9 37.7922 33.625 37.8422 33.575C38.3755 32.9083 38.7839 32.175 39.0672 31.375C39.3505 30.575 39.4922 29.7417 39.4922 28.875C39.4922 27.525 39.1505 26.2667 38.4672 25.1C37.8005 23.9667 36.9005 23.0667 35.7672 22.4C34.6005 21.7167 33.3422 21.375 31.9922 21.375C30.6422 21.375 29.3839 21.7167 28.2172 22.4C27.0839 23.0667 26.1839 23.9667 25.5172 25.1C24.8339 26.2667 24.4922 27.525 24.4922 28.875C24.4922 29.7417 24.6339 30.575 24.9172 31.375C25.2005 32.175 25.6089 32.9 26.1422 33.55C26.1922 33.6167 26.4589 33.9 26.9422 34.4L27.2922 34.775C27.9422 35.4917 28.4339 36.1583 28.7672 36.775C29.1505 37.4583 29.3839 38.1583 29.4672 38.875ZM29.4922 41.375V42.625H34.4922V41.375H29.4922ZM24.1922 35.125C23.4922 34.2583 22.9505 33.3 22.5672 32.25C22.1839 31.1667 21.9922 30.0417 21.9922 28.875C21.9922 27.0583 22.4505 25.375 23.3672 23.825C24.2505 22.325 25.4422 21.1333 26.9422 20.25C28.4922 19.3333 30.1755 18.875 31.9922 18.875C33.8089 18.875 35.4922 19.3333 37.0422 20.25C38.5422 21.1333 39.7339 22.325 40.6172 23.825C41.5339 25.375 41.9922 27.0583 41.9922 28.875C41.9922 30.0417 41.8005 31.1667 41.4172 32.25C41.0339 33.3 40.4922 34.2583 39.7922 35.125C39.6755 35.275 39.4422 35.525 39.0922 35.875C38.4422 36.5583 37.9839 37.1 37.7172 37.5C37.2339 38.2 36.9922 38.8667 36.9922 39.5V42.625C36.9922 43.075 36.8797 43.4917 36.6547 43.875C36.4297 44.2583 36.1255 44.5625 35.7422 44.7875C35.3589 45.0125 34.9422 45.125 34.4922 45.125H29.4922C29.0422 45.125 28.6255 45.0125 28.2422 44.7875C27.8589 44.5625 27.5547 44.2583 27.3297 43.875C27.1047 43.4917 26.9922 43.075 26.9922 42.625V39.5C26.9922 38.8667 26.7505 38.2 26.2672 37.5C26.0005 37.1 25.5422 36.5583 24.8922 35.875C24.5422 35.525 24.3089 35.275 24.1922 35.125Z" fill="url(#paint0_linear_1_141)"/>
<defs>
<linearGradient id="paint0_linear_1_141" x1="1.99219" y1="32" x2="41.9922" y2="32" gradientUnits="userSpaceOnUse">
<stop stop-color="#EAB308"/>
<stop offset="1" stop-color="#EA580C"/>
</linearGradient>
</defs>
</svg>
