<svg width="56" height="80" viewBox="0 0 56 80" fill="none" xmlns="http://www.w3.org/2000/svg">
<path d="M0 16C0 7.16344 7.16344 0 16 0H40C48.8366 0 56 7.16344 56 16V40C56 48.8366 48.8366 56 40 56H16C7.16344 56 0 48.8366 0 40V16Z" fill="url(#paint0_linear_1_192)"/>
<path d="M28.5 30.76V32.84C27.86 32.6133 27.1933 32.5 26.5 32.5C25.42 32.5 24.4133 32.7733 23.48 33.32C22.5733 33.8533 21.8533 34.5733 21.32 35.48C20.7733 36.4133 20.5 37.42 20.5 38.5H18.5C18.5 37.0467 18.8667 35.7 19.6 34.46C20.3067 33.26 21.26 32.3067 22.46 31.6C23.7 30.8667 25.0467 30.5 26.5 30.5C27.18 30.5 27.8467 30.5867 28.5 30.76ZM26.5 29.5C25.4067 29.5 24.4 29.2267 23.48 28.68C22.5733 28.1467 21.8533 27.4267 21.32 26.52C20.7733 25.6 20.5 24.5933 20.5 23.5C20.5 22.4067 20.7733 21.4 21.32 20.48C21.8533 19.5733 22.5733 18.8533 23.48 18.32C24.4 17.7733 25.4067 17.5 26.5 17.5C27.5933 17.5 28.6 17.7733 29.52 18.32C30.4267 18.8533 31.1467 19.5733 31.68 20.48C32.2267 21.4 32.5 22.4067 32.5 23.5C32.5 24.5933 32.2267 25.6 31.68 26.52C31.1467 27.4267 30.4267 28.1467 29.52 28.68C28.6 29.2267 27.5933 29.5 26.5 29.5ZM26.5 27.5C27.22 27.5 27.8867 27.32 28.5 26.96C29.1133 26.6 29.6 26.1133 29.96 25.5C30.32 24.8867 30.5 24.22 30.5 23.5C30.5 22.78 30.32 22.1133 29.96 21.5C29.6 20.8867 29.1133 20.4 28.5 20.04C27.8867 19.68 27.22 19.5 26.5 19.5C25.78 19.5 25.1133 19.68 24.5 20.04C23.8867 20.4 23.4 20.8867 23.04 21.5C22.68 22.1133 22.5 22.78 22.5 23.5C22.5 24.22 22.68 24.8867 23.04 25.5C23.4 26.1133 23.8867 26.6 24.5 26.96C25.1133 27.32 25.78 27.5 26.5 27.5ZM32.5 33.5V30.5H34.5V33.5H37.5V35.5H34.5V38.5H32.5V35.5H29.5V33.5H32.5Z" fill="white"/>
<defs>
<linearGradient id="paint0_linear_1_192" x1="0" y1="0" x2="56" y2="0" gradientUnits="userSpaceOnUse">
<stop stop-color="#A855F7"/>
<stop offset="1" stop-color="#9333EA"/>
</linearGradient>
</defs>
</svg>
