<svg width="56" height="72" viewBox="0 0 56 72" fill="none" xmlns="http://www.w3.org/2000/svg">
<path d="M0 12C0 5.37258 5.37258 0 12 0H44C50.6274 0 56 5.37258 56 12V44C56 50.6274 50.6274 56 44 56H12C5.37258 56 0 50.6274 0 44V12Z" fill="url(#paint0_linear_1_642)"/>
<path d="M28 22.5C29.4533 22.5 30.8 22.8667 32.04 23.6C33.24 24.3067 34.1933 25.26 34.9 26.46C35.6333 27.7 36 29.0467 36 30.5C36 31.9533 35.6333 33.3 34.9 34.54C34.1933 35.74 33.24 36.6933 32.04 37.4C30.8 38.1333 29.4533 38.5 28 38.5C26.5467 38.5 25.2 38.1333 23.96 37.4C22.76 36.6933 21.8067 35.74 21.1 34.54C20.3667 33.3 20 31.9533 20 30.5C20 29.0467 20.3667 27.7 21.1 26.46C21.8067 25.26 22.76 24.3067 23.96 23.6C25.2 22.8667 26.5467 22.5 28 22.5ZM28 26L26.68 28.68L23.72 29.1L25.86 31.2L25.36 34.14L28 32.76L30.64 34.14L30.14 31.2L32.28 29.1L29.32 28.68L28 26ZM29 17.5H34V20.5L32.64 21.64C31.4933 21.04 30.28 20.6733 29 20.54V17.5ZM27 17.5V20.54C25.72 20.6733 24.5067 21.04 23.36 21.64L22 20.5V17.5H27Z" fill="white"/>
<defs>
<linearGradient id="paint0_linear_1_642" x1="0" y1="0" x2="56" y2="0" gradientUnits="userSpaceOnUse">
<stop stop-color="#C084FC"/>
<stop offset="1" stop-color="#9333EA"/>
</linearGradient>
</defs>
</svg>
