<svg width="56" height="72" viewBox="0 0 56 72" fill="none" xmlns="http://www.w3.org/2000/svg">
<path d="M0 12C0 5.37258 5.37258 0 12 0H44C50.6274 0 56 5.37258 56 12V44C56 50.6274 50.6274 56 44 56H12C5.37258 56 0 50.6274 0 44V12Z" fill="url(#paint0_linear_1_814)"/>
<path d="M34 24.5H36C36.28 24.5 36.5167 24.5967 36.71 24.79C36.9033 24.9833 37 25.22 37 25.5V37.5C37 37.78 36.9033 38.0167 36.71 38.21C36.5167 38.4033 36.28 38.5 36 38.5H20C19.72 38.5 19.4833 38.4033 19.29 38.21C19.0967 38.0167 19 37.78 19 37.5V25.5C19 25.22 19.0967 24.9833 19.29 24.79C19.4833 24.5967 19.72 24.5 20 24.5H22V23.5C22 22.42 22.2733 21.4133 22.82 20.48C23.3533 19.5733 24.0733 18.8533 24.98 18.32C25.9133 17.7733 26.92 17.5 28 17.5C29.08 17.5 30.0867 17.7733 31.02 18.32C31.9267 18.8533 32.6467 19.5733 33.18 20.48C33.7267 21.4133 34 22.42 34 23.5V24.5ZM32 24.5V23.5C32 22.78 31.82 22.1133 31.46 21.5C31.1 20.8867 30.6133 20.4 30 20.04C29.3867 19.68 28.72 19.5 28 19.5C27.28 19.5 26.6133 19.68 26 20.04C25.3867 20.4 24.9 20.8867 24.54 21.5C24.18 22.1133 24 22.78 24 23.5V24.5H32ZM27 30.5V32.5H29V30.5H27ZM23 30.5V32.5H25V30.5H23ZM31 30.5V32.5H33V30.5H31Z" fill="white"/>
<defs>
<linearGradient id="paint0_linear_1_814" x1="0" y1="0" x2="56" y2="0" gradientUnits="userSpaceOnUse">
<stop stop-color="#22C55E"/>
<stop offset="1" stop-color="#3B82F6"/>
</linearGradient>
</defs>
</svg>
