<svg width="64" height="88" viewBox="0 0 64 88" fill="none" xmlns="http://www.w3.org/2000/svg">
<path d="M0 16C0 7.16344 7.16344 0 16 0H48C56.8366 0 64 7.16344 64 16V48C64 56.8366 56.8366 64 48 64H16C7.16344 64 0 56.8366 0 48V16Z" fill="url(#paint0_linear_1_448)"/>
<path d="M30.2672 34.4749V44.4749H20.2672C20.2672 42.6582 20.7255 40.9749 21.6422 39.4249C22.5255 37.9082 23.7172 36.7082 25.2172 35.8249C26.7672 34.9249 28.4505 34.4749 30.2672 34.4749ZM37.7672 43.8499L34.0922 45.7749L34.7922 41.6749L31.8172 38.7999L35.9422 38.1999L37.7672 34.4749L39.6172 38.1999L43.7172 38.7999L40.7422 41.6749L41.4422 45.7749L37.7672 43.8499ZM30.2672 33.2249C28.9172 33.2249 27.6589 32.8832 26.4922 32.1999C25.3589 31.5332 24.4589 30.6332 23.7922 29.4999C23.1089 28.3332 22.7672 27.0707 22.7672 25.7124C22.7672 24.3541 23.1089 23.0916 23.7922 21.9249C24.4589 20.8082 25.3589 19.9166 26.4922 19.2499C27.6589 18.5666 28.9214 18.2249 30.2797 18.2249C31.638 18.2249 32.9005 18.5666 34.0672 19.2499C35.1839 19.9166 36.0755 20.8082 36.7422 21.9249C37.4255 23.0916 37.7672 24.3541 37.7672 25.7124C37.7672 27.0707 37.4255 28.3332 36.7422 29.4999C36.0755 30.6332 35.1839 31.5332 34.0672 32.1999C32.9005 32.8832 31.6339 33.2249 30.2672 33.2249Z" fill="white"/>
<defs>
<linearGradient id="paint0_linear_1_448" x1="0" y1="0" x2="64" y2="0" gradientUnits="userSpaceOnUse">
<stop stop-color="#3B82F6"/>
<stop offset="1" stop-color="#2563EB"/>
</linearGradient>
</defs>
</svg>
