<svg width="56" height="72" viewBox="0 0 56 72" fill="none" xmlns="http://www.w3.org/2000/svg">
<path d="M0 12C0 5.37258 5.37258 0 12 0H44C50.6274 0 56 5.37258 56 12V44C56 50.6274 50.6274 56 44 56H12C5.37258 56 0 50.6274 0 44V12Z" fill="url(#paint0_linear_1_838)"/>
<path d="M19.78 18.82L28 17L36.22 18.82C36.4467 18.8733 36.6333 18.9933 36.78 19.18C36.9267 19.3667 37 19.5733 37 19.8V29.78C37 30.7933 36.7633 31.74 36.29 32.62C35.8167 33.5 35.16 34.22 34.32 34.78L28 39L21.68 34.78C20.84 34.22 20.1833 33.5 19.71 32.62C19.2367 31.74 19 30.7933 19 29.78V19.8C19 19.5733 19.0733 19.3667 19.22 19.18C19.3667 18.9933 19.5533 18.8733 19.78 18.82ZM28 29.5L30.94 31.04L30.38 27.78L32.76 25.46L29.46 24.98L28 22L26.54 24.98L23.24 25.46L25.62 27.78L25.06 31.04L28 29.5Z" fill="white"/>
<defs>
<linearGradient id="paint0_linear_1_838" x1="0" y1="0" x2="56" y2="0" gradientUnits="userSpaceOnUse">
<stop stop-color="#22C55E"/>
<stop offset="1" stop-color="#3B82F6"/>
</linearGradient>
</defs>
</svg>
