<svg width="960" height="104" viewBox="0 0 960 104" fill="none" xmlns="http://www.w3.org/2000/svg">
<path d="M459.96 47.0399C459.32 44.1599 459 41.2199 459 38.2199C459 33.2199 459.9 28.4599 461.7 23.9399C463.46 19.5399 465.93 15.6699 469.11 12.3299C472.29 8.98987 475.92 6.43987 480 4.67986C484.08 6.43987 487.71 8.98987 490.89 12.3299C494.07 15.6699 496.54 19.5399 498.3 23.9399C500.1 28.4599 501 33.2199 501 38.2199C501 41.2199 500.68 44.1599 500.04 47.0399L506.1 52.3799C506.34 52.6199 506.49 52.9199 506.55 53.2799C506.61 53.6399 506.54 53.9799 506.34 54.2999L498.96 66.5999C498.76 66.9599 498.46 67.1899 498.06 67.2899C497.66 67.3899 497.28 67.3199 496.92 67.0799C496.84 67.0399 496.74 66.9799 496.62 66.8999L489.9 60.1199C489.3 59.5199 488.58 59.2199 487.74 59.2199H472.26C471.42 59.2199 470.7 59.5199 470.1 60.1199L463.38 66.8999C463.06 67.1799 462.7 67.3199 462.3 67.3199C461.9 67.3199 461.54 67.1799 461.22 66.8999C461.14 66.7799 461.08 66.6799 461.04 66.5999L453.66 54.2999C453.46 53.9799 453.39 53.6399 453.45 53.2799C453.51 52.9199 453.66 52.6199 453.9 52.3799L459.96 47.0399ZM480 38.2199C481.08 38.2199 482.08 37.9499 483 37.4099C483.92 36.8699 484.65 36.1399 485.19 35.2199C485.73 34.2999 486 33.2999 486 32.2199C486 31.1399 485.73 30.1399 485.19 29.2199C484.65 28.2999 483.92 27.5699 483 27.0299C482.08 26.4899 481.08 26.2199 480 26.2199C478.92 26.2199 477.92 26.4899 477 27.0299C476.08 27.5699 475.35 28.2999 474.81 29.2199C474.27 30.1399 474 31.1399 474 32.2199C474 33.2999 474.27 34.2999 474.81 35.2199C475.35 36.1399 476.08 36.8699 477 37.4099C477.92 37.9499 478.92 38.2199 480 38.2199Z" fill="white"/>
</svg>
