<svg width="56" height="72" viewBox="0 0 56 72" fill="none" xmlns="http://www.w3.org/2000/svg">
<path d="M0 12C0 5.37258 5.37258 0 12 0H44C50.6274 0 56 5.37258 56 12V44C56 50.6274 50.6274 56 44 56H12C5.37258 56 0 50.6274 0 44V12Z" fill="url(#paint0_linear_1_826)"/>
<path d="M35 38H21C20.4533 38 19.95 37.8667 19.49 37.6C19.03 37.3333 18.6667 36.97 18.4 36.51C18.1333 36.05 18 35.5467 18 35V19C18 18.72 18.0967 18.4833 18.29 18.29C18.4833 18.0967 18.72 18 19 18H33C33.28 18 33.5167 18.0967 33.71 18.29C33.9033 18.4833 34 18.72 34 19V31H38V35C38 35.5467 37.8667 36.05 37.6 36.51C37.3333 36.97 36.97 37.3333 36.51 37.6C36.05 37.8667 35.5467 38 35 38ZM34 33V35C34 35.28 34.0967 35.5167 34.29 35.71C34.4833 35.9033 34.72 36 35 36C35.28 36 35.5167 35.9033 35.71 35.71C35.9033 35.5167 36 35.28 36 35V33H34ZM22 23V25H30V23H22ZM22 27V29H30V27H22ZM22 31V33H27V31H22Z" fill="white"/>
<defs>
<linearGradient id="paint0_linear_1_826" x1="0" y1="0" x2="56" y2="0" gradientUnits="userSpaceOnUse">
<stop stop-color="#22C55E"/>
<stop offset="1" stop-color="#3B82F6"/>
</linearGradient>
</defs>
</svg>
