<svg width="64" height="88" viewBox="0 0 64 88" fill="none" xmlns="http://www.w3.org/2000/svg">
<path d="M0 16C0 7.16344 7.16344 0 16 0H48C56.8366 0 64 7.16344 64 16V48C64 56.8366 56.8366 64 48 64H16C7.16344 64 0 56.8366 0 48V16Z" fill="url(#paint0_linear_1_372)"/>
<path d="M25.7422 31.375C24.7255 31.375 23.788 31.1208 22.9297 30.6125C22.0714 30.1042 21.388 29.4208 20.8797 28.5625C20.3714 27.7042 20.1172 26.7667 20.1172 25.75C20.1172 24.7333 20.3714 23.7958 20.8797 22.9375C21.388 22.0792 22.0714 21.3958 22.9297 20.8875C23.788 20.3792 24.7255 20.125 25.7422 20.125C26.7589 20.125 27.6964 20.3792 28.5547 20.8875C29.413 21.3958 30.0964 22.0792 30.6047 22.9375C31.113 23.7958 31.3672 24.7333 31.3672 25.75C31.3672 26.7667 31.113 27.7042 30.6047 28.5625C30.0964 29.4208 29.413 30.1042 28.5547 30.6125C27.6964 31.1208 26.7589 31.375 25.7422 31.375ZM38.8672 36.375C37.9672 36.375 37.1339 36.15 36.3672 35.7C35.6005 35.25 34.9922 34.6417 34.5422 33.875C34.0922 33.1083 33.8672 32.275 33.8672 31.375C33.8672 30.475 34.0922 29.6417 34.5422 28.875C34.9922 28.1083 35.6005 27.5 36.3672 27.05C37.1339 26.6 37.9672 26.375 38.8672 26.375C39.7672 26.375 40.6005 26.6 41.3672 27.05C42.1339 27.5 42.7422 28.1083 43.1922 28.875C43.6422 29.6417 43.8672 30.475 43.8672 31.375C43.8672 32.275 43.6422 33.1083 43.1922 33.875C42.7422 34.6417 42.1339 35.25 41.3672 35.7C40.6005 36.15 39.7672 36.375 38.8672 36.375ZM38.8672 37.625C39.8839 37.625 40.8214 37.8792 41.6797 38.3875C42.538 38.8958 43.2214 39.5792 43.7297 40.4375C44.238 41.2958 44.4922 42.2333 44.4922 43.25V43.875H33.2422V43.25C33.2422 42.2333 33.4964 41.2958 34.0047 40.4375C34.513 39.5792 35.1964 38.8958 36.0547 38.3875C36.913 37.8792 37.8505 37.625 38.8672 37.625ZM25.7422 32.625C26.8755 32.625 27.9214 32.9042 28.8797 33.4625C29.838 34.0208 30.5964 34.7792 31.1547 35.7375C31.713 36.6958 31.9922 37.7417 31.9922 38.875V43.875H19.4922V38.875C19.4922 37.7417 19.7714 36.6958 20.3297 35.7375C20.888 34.7792 21.6464 34.0208 22.6047 33.4625C23.563 32.9042 24.6089 32.625 25.7422 32.625Z" fill="white"/>
<defs>
<linearGradient id="paint0_linear_1_372" x1="0" y1="0" x2="64" y2="0" gradientUnits="userSpaceOnUse">
<stop stop-color="#EC4899"/>
<stop offset="1" stop-color="#DB2777"/>
</linearGradient>
</defs>
</svg>
