<svg width="64" height="88" viewBox="0 0 64 88" fill="none" xmlns="http://www.w3.org/2000/svg">
<path d="M0 16C0 7.16344 7.16344 0 16 0H48C56.8366 0 64 7.16344 64 16V48C64 56.8366 56.8366 64 48 64H16C7.16344 64 0 56.8366 0 48V16Z" fill="#DCFCE7"/>
<path d="M40.7422 22H23.2422V42H40.7422V22ZM20.7422 20.75C20.7422 20.4 20.863 20.1042 21.1047 19.8625C21.3464 19.6208 21.6422 19.5 21.9922 19.5H41.9922C42.3422 19.5 42.638 19.6208 42.8797 19.8625C43.1214 20.1042 43.2422 20.4 43.2422 20.75V43.25C43.2422 43.5833 43.1214 43.875 42.8797 44.125C42.638 44.375 42.3422 44.5 41.9922 44.5H21.9922C21.6422 44.5 21.3464 44.3792 21.1047 44.1375C20.863 43.8958 20.7422 43.6 20.7422 43.25V20.75ZM31.1172 33.4L36.4172 28.1L38.1672 29.875L31.1172 36.925L26.2422 32.075L28.0172 30.3L31.1172 33.4Z" fill="url(#paint0_linear_1_129)"/>
<defs>
<linearGradient id="paint0_linear_1_129" x1="-1.75781" y1="32" x2="43.2422" y2="32" gradientUnits="userSpaceOnUse">
<stop stop-color="#22C55E"/>
<stop offset="1" stop-color="#16A34A"/>
</linearGradient>
</defs>
</svg>
