<svg width="22" height="32" viewBox="0 0 22 32" fill="none" xmlns="http://www.w3.org/2000/svg">
<path d="M10.4683 24.4598C9.32931 24.4598 8.24061 24.242 7.20215 23.8064C6.20836 23.382 5.32344 22.7816 4.54739 22.0054C3.77134 21.2291 3.17115 20.344 2.74684 19.35C2.31135 18.3112 2.09361 17.2223 2.09361 16.083C2.09361 14.9438 2.31135 13.8548 2.74684 12.8161C3.17115 11.8221 3.77134 10.9369 4.54739 10.1607C5.32344 9.38442 6.20836 8.78409 7.20215 8.35966C8.24061 7.92407 9.32931 7.70628 10.4683 7.70628C11.6072 7.70628 12.6959 7.92407 13.7344 8.35966C14.7282 8.78409 15.6131 9.38442 16.3891 10.1607C17.1652 10.9369 17.7654 11.8221 18.1897 12.8161C18.6252 13.8548 18.8429 14.9438 18.8429 16.083C18.8429 17.2223 18.6252 18.3112 18.1897 19.35C17.7654 20.344 17.1652 21.2291 16.3891 22.0054C15.6131 22.7816 14.7282 23.382 13.7344 23.8064C12.6959 24.242 11.6072 24.4598 10.4683 24.4598ZM9.6308 19.4337L15.5601 13.503L14.3709 12.3302L9.6308 17.0715L7.26915 14.6925L6.07995 15.882L9.6308 19.4337Z" fill="url(#paint0_linear_1_1018)"/>
<defs>
<linearGradient id="paint0_linear_1_1018" x1="-14.6557" y1="32" x2="18.8429" y2="32" gradientUnits="userSpaceOnUse">
<stop stop-color="#A855F7"/>
<stop offset="1" stop-color="#EC4899"/>
</linearGradient>
</defs>
</svg>
