<svg width="64" height="88" viewBox="0 0 64 88" fill="none" xmlns="http://www.w3.org/2000/svg">
<path d="M0 16C0 7.16344 7.16344 0 16 0H48C56.8366 0 64 7.16344 64 16V48C64 56.8366 56.8366 64 48 64H16C7.16344 64 0 56.8366 0 48V16Z" fill="#FCE7F3"/>
<path d="M38.2422 22C39.5922 22 40.8505 22.3417 42.0172 23.025C43.1505 23.6917 44.0505 24.5917 44.7172 25.725C45.4005 26.8917 45.7422 28.15 45.7422 29.5V34.5C45.7422 35.85 45.4005 37.1083 44.7172 38.275C44.0505 39.4083 43.1505 40.3083 42.0172 40.975C40.8505 41.6583 39.5922 42 38.2422 42H25.7422C24.3922 42 23.1339 41.6583 21.9672 40.975C20.8339 40.3083 19.9339 39.4083 19.2672 38.275C18.5839 37.1083 18.2422 35.85 18.2422 34.5V29.5C18.2422 28.15 18.5839 26.8917 19.2672 25.725C19.9339 24.5917 20.8339 23.6917 21.9672 23.025C23.1339 22.3417 24.3922 22 25.7422 22H38.2422ZM38.2422 24.5H25.7422C24.8589 24.5 24.0464 24.7125 23.3047 25.1375C22.563 25.5625 21.963 26.1375 21.5047 26.8625C21.0464 27.5875 20.7922 28.3833 20.7422 29.25V34.5C20.7422 35.3833 20.9547 36.1958 21.3797 36.9375C21.8047 37.6792 22.3797 38.2792 23.1047 38.7375C23.8297 39.1958 24.6255 39.45 25.4922 39.5H38.2422C39.1255 39.5 39.938 39.2875 40.6797 38.8625C41.4214 38.4375 42.0214 37.8625 42.4797 37.1375C42.938 36.4125 43.1922 35.6167 43.2422 34.75V29.5C43.2422 28.6167 43.0297 27.8042 42.6047 27.0625C42.1797 26.3208 41.6047 25.7208 40.8797 25.2625C40.1547 24.8042 39.3589 24.55 38.4922 24.5H38.2422ZM29.4922 28.25V30.75H31.9922V33.25H29.4922V35.75H26.9922V33.25H24.4922V30.75H26.9922V28.25H29.4922ZM39.4922 33.25V35.75H36.9922V33.25H39.4922ZM36.9922 28.25V30.75H34.4922V28.25H36.9922Z" fill="url(#paint0_linear_1_105)"/>
<defs>
<linearGradient id="paint0_linear_1_105" x1="-9.25781" y1="32" x2="45.7422" y2="32" gradientUnits="userSpaceOnUse">
<stop stop-color="#EC4899"/>
<stop offset="1" stop-color="#DB2777"/>
</linearGradient>
</defs>
</svg>
