<svg width="56" height="80" viewBox="0 0 56 80" fill="none" xmlns="http://www.w3.org/2000/svg">
<path d="M0 16C0 7.16344 7.16344 0 16 0H40C48.8366 0 56 7.16344 56 16V40C56 48.8366 48.8366 56 40 56H16C7.16344 56 0 48.8366 0 40V16Z" fill="url(#paint0_linear_1_234)"/>
<path d="M29 36V38H27V36H19C18.72 36 18.4833 35.9033 18.29 35.71C18.0967 35.5167 18 35.28 18 35V19C18 18.72 18.0967 18.4833 18.29 18.29C18.4833 18.0967 18.72 18 19 18H25C25.5867 18 26.14 18.12 26.66 18.36C27.18 18.6 27.6267 18.9333 28 19.36C28.3733 18.9333 28.82 18.6 29.34 18.36C29.86 18.12 30.4133 18 31 18H37C37.28 18 37.5167 18.0967 37.71 18.29C37.9033 18.4833 38 18.72 38 19V35C38 35.28 37.9033 35.5167 37.71 35.71C37.5167 35.9033 37.28 36 37 36H29ZM36 34V20H31C30.64 20 30.3067 20.09 30 20.27C29.6933 20.45 29.45 20.6933 29.27 21C29.09 21.3067 29 21.64 29 22V34H36ZM27 34V22C27 21.64 26.91 21.3067 26.73 21C26.55 20.6933 26.3067 20.45 26 20.27C25.6933 20.09 25.36 20 25 20H20V34H27Z" fill="white"/>
<defs>
<linearGradient id="paint0_linear_1_234" x1="0" y1="0" x2="56" y2="0" gradientUnits="userSpaceOnUse">
<stop stop-color="#3B82F6"/>
<stop offset="1" stop-color="#2563EB"/>
</linearGradient>
</defs>
</svg>
