<svg width="28" height="28" viewBox="0 0 28 28" fill="none" xmlns="http://www.w3.org/2000/svg">
<g clip-path="url(#clip0_1_1434)">
<mask id="mask0_1_1434" style="mask-type:luminance" maskUnits="userSpaceOnUse" x="0" y="0" width="28" height="28">
<path d="M28 0H0V28H28V0Z" fill="white"/>
</mask>
<g mask="url(#mask0_1_1434)">
<path fill-rule="evenodd" clip-rule="evenodd" d="M14.0002 0.777344C8.24758 0.777344 3.53689 5.23818 3.13855 10.8894H2.60755C1.74737 10.8894 1.05005 11.5867 1.05005 12.4469V16.163C1.05005 18.8347 3.2159 21.0005 5.88761 21.0005C6.65218 21.0005 7.27199 20.3807 7.27199 19.6161V16.9942H10.3845L11.6248 18.5446C11.6873 18.6227 11.7606 18.6915 11.8425 18.7488C12.3176 19.0814 12.9723 18.9659 13.3049 18.4908L15.223 15.7507L15.9025 16.6001C16.1018 16.8492 16.4035 16.9942 16.7225 16.9942H20.7201V19.6165C20.7201 20.26 21.1592 20.8009 21.7541 20.9559C21.7152 21.0437 21.6746 21.1299 21.6324 21.2146C21.1669 22.1483 20.4999 22.8972 19.6314 23.4611C18.7527 24.0316 17.6618 24.4185 16.3586 24.6218C16.0387 24.1105 15.4781 23.7999 14.875 23.7999H13.125C12.1585 23.7999 11.375 24.5834 11.375 25.5499C11.375 26.5164 12.1585 27.2999 13.125 27.2999H14.875C15.5179 27.2999 16.109 26.9474 16.4147 26.3818C18.0589 26.1505 19.4488 25.6662 20.5844 24.9289C21.7198 24.1916 22.5912 23.2138 23.1986 21.9953C23.3969 21.5975 23.566 21.1754 23.7059 20.729C25.5906 20.0679 26.942 18.2731 26.942 16.1626V12.445C26.942 11.5859 26.2455 10.8894 25.3864 10.8894H24.8618C24.4634 5.23818 19.7527 0.777344 14.0002 0.777344ZM5.71449 10.8894H5.46985C5.63526 8.85699 6.46075 7.098 7.94633 5.61242C9.61805 3.9407 11.636 3.10484 14.0002 3.10484C16.3643 3.10484 18.3823 3.9407 20.054 5.61242C21.5395 7.098 22.365 8.85699 22.5305 10.8894H22.2775C21.4174 10.8894 20.7201 11.5867 20.7201 12.4469V14.8942H17.2271L15.9868 13.3438C15.8128 13.1264 15.5596 12.9869 15.2829 12.9562C15.0061 12.9254 14.7284 13.0059 14.511 13.1798C14.4329 13.2423 14.3641 13.3157 14.3067 13.3976L12.3886 16.1377L11.709 15.2883C11.5098 15.0392 11.2081 14.8942 10.8891 14.8942H7.27199V12.4469C7.27199 11.5867 6.57467 10.8894 5.71449 10.8894ZM3.15005 16.163C3.15005 16.9189 3.41732 17.5642 3.95186 18.0987C4.30912 18.456 4.71583 18.6938 5.17199 18.8123V12.9894H3.15005V16.163ZM22.82 12.9894V18.8122C23.2762 18.6937 23.6828 18.4558 24.0401 18.0986C24.5747 17.564 24.842 16.9186 24.842 16.1626V12.9894H22.82Z" fill="#EC4899"/>
</g>
</g>
<defs>
<clipPath id="clip0_1_1434">
<rect width="28" height="28" fill="white"/>
</clipPath>
</defs>
</svg>
